<svg width="244" height="244" viewBox="0 0 244 244" fill="none" xmlns="http://www.w3.org/2000/svg">
<path d="M215.328 160.99C215.33 160.992 215.332 160.994 215.334 160.995L241.484 174.585C244.839 176.328 244.839 181.302 241.484 183.044L126.075 243.003C124.81 243.659 123.416 244 122.003 244C120.59 244 119.196 243.659 117.932 243.003L2.52253 183.044C1.76861 182.649 1.135 182.045 0.692305 181.298C0.249606 180.551 0.0151976 179.692 0.0151976 178.815C0.0151976 177.938 0.249606 177.078 0.692305 176.331C1.135 175.584 1.76861 174.98 2.52253 174.585L25.003 162.909C27.3149 161.708 30.0667 161.708 32.3785 162.909L109.773 203.115C117.474 207.107 126.548 207.107 134.233 203.115L215.3 160.986C215.309 160.981 215.321 160.983 215.328 160.99ZM117.932 0.996666C119.196 0.341198 120.59 0 122.003 0C123.416 0 124.81 0.341198 126.075 0.996666L241.484 60.9399C242.237 61.3372 242.87 61.9434 243.312 62.6914C243.754 63.4394 243.988 64.2998 243.988 65.1775C243.988 66.0551 243.754 66.9156 243.312 67.6635C242.87 68.4115 242.237 69.0177 241.484 69.415L126.075 129.342C124.81 129.998 123.416 130.339 122.003 130.339C120.59 130.339 119.196 129.998 117.932 129.342L2.52253 69.415C1.76461 69.0218 1.12713 68.4171 0.681572 67.6686C0.236014 66.9201 0 66.0575 0 65.1775C0 64.2974 0.236014 63.4348 0.681572 62.6863C1.12713 61.9378 1.76461 61.3331 2.52253 60.9399L117.932 0.996666Z" fill="#1D1D1D"/>
<path d="M211.642 106.087C213.954 104.886 216.706 104.886 219.018 106.087L241.483 117.763C244.838 119.505 244.838 124.479 241.483 126.222L126.074 186.165C124.81 186.821 123.416 187.162 122.003 187.162C120.589 187.162 119.195 186.821 117.931 186.165L2.52198 126.222C1.76806 125.827 1.13445 125.223 0.691755 124.476C0.249056 123.729 0.0146484 122.869 0.0146484 121.992C0.0146484 121.115 0.249056 120.255 0.691755 119.509C1.13445 118.762 1.76806 118.157 2.52198 117.763L25.0025 106.086C27.3144 104.885 30.0662 104.886 32.378 106.087L109.772 146.293C117.473 150.285 126.547 150.285 134.233 146.293L211.642 106.087Z" fill="#FFBF00"/>
</svg>
