<svg width="911" height="226" viewBox="0 0 911 226" fill="none" xmlns="http://www.w3.org/2000/svg">
<path d="M107.857 77.6873H137.121V201C120.959 201 107.857 187.898 107.857 171.736V77.6873Z" fill="#FFD438"/>
<path d="M70.7109 77.6873H41.447V201C57.609 201 70.7109 187.898 70.7109 171.736V77.6873Z" fill="#FFD438"/>
<path d="M0 63.2366C0 44.8805 14.8805 30 33.2366 30H179.918C179.918 48.3561 165.038 63.2366 146.682 63.2366H0Z" fill="black"/>
<path d="M214.85 117.25C242.25 118.75 260.8 119.5 270.5 119.5C272.8 119.5 274.6 118.85 275.9 117.55C277.3 116.15 278 114.3 278 112V98.5H243.5C233 98.5 225.35 96.15 220.55 91.45C215.85 86.65 213.5 79 213.5 68.5V64C213.5 53.5 215.85 45.9 220.55 41.2C225.35 36.4 233 34 243.5 34H296.15V55H249.5C243.5 55 240.5 58 240.5 64V67C240.5 73 243.5 76 249.5 76H276.5C286.3 76 293.5 78.3 298.1 82.9C302.7 87.5 305 94.7 305 104.5V112C305 121.8 302.7 129 298.1 133.6C293.5 138.2 286.3 140.5 276.5 140.5C271.4 140.5 266 140.4 260.3 140.2L246.5 139.6C236.3 139.1 225.75 138.4 214.85 137.5V117.25ZM401.738 139H318.488V34H401.738V55H345.488V75.25H389.738V96.25H345.488V118H401.738V139ZM494.703 137.5C472.403 139.5 453.903 140.5 439.203 140.5C429.403 140.5 422.203 138.2 417.603 133.6C413.003 129 410.703 121.8 410.703 112V64C410.703 53.5 413.053 45.9 417.753 41.2C422.553 36.4 430.203 34 440.703 34H494.703V55H446.703C440.703 55 437.703 58 437.703 64V112C437.703 114.3 438.353 116.15 439.653 117.55C441.053 118.85 442.803 119.5 444.903 119.5C447.003 119.5 449.303 119.5 451.803 119.5C454.303 119.4 456.903 119.3 459.603 119.2C462.303 119.1 465.003 119 467.703 118.9C470.503 118.8 474.053 118.6 478.353 118.3C482.753 118 488.203 117.65 494.703 117.25V137.5ZM574.221 62.5C574.221 56.5 571.221 53.5 565.221 53.5H539.721C533.721 53.5 530.721 56.5 530.721 62.5V110.5C530.721 116.5 533.721 119.5 539.721 119.5H565.221C571.221 119.5 574.221 116.5 574.221 110.5V62.5ZM601.221 110.5C601.221 121 598.821 128.65 594.021 133.45C589.321 138.15 581.721 140.5 571.221 140.5H533.721C523.221 140.5 515.571 138.15 510.771 133.45C506.071 128.65 503.721 121 503.721 110.5V62.5C503.721 52 506.071 44.4 510.771 39.7C515.571 34.9 523.221 32.5 533.721 32.5H571.221C581.721 32.5 589.321 34.9 594.021 39.7C598.821 44.4 601.221 52 601.221 62.5V110.5ZM707.791 139H679.291L643.291 76V139H616.291V34H644.791L680.791 97V34H707.791V139ZM722.711 117.25C750.111 118.75 768.661 119.5 778.361 119.5C780.661 119.5 782.461 118.85 783.761 117.55C785.161 116.15 785.861 114.3 785.861 112V98.5H751.361C740.861 98.5 733.211 96.15 728.411 91.45C723.711 86.65 721.361 79 721.361 68.5V64C721.361 53.5 723.711 45.9 728.411 41.2C733.211 36.4 740.861 34 751.361 34H804.011V55H757.361C751.361 55 748.361 58 748.361 64V67C748.361 73 751.361 76 757.361 76H784.361C794.161 76 801.361 78.3 805.961 82.9C810.561 87.5 812.861 94.7 812.861 104.5V112C812.861 121.8 810.561 129 805.961 133.6C801.361 138.2 794.161 140.5 784.361 140.5C779.261 140.5 773.861 140.4 768.161 140.2L754.361 139.6C744.161 139.1 733.611 138.4 722.711 137.5V117.25ZM869.879 139H842.879V55H811.379V34H901.379V55H869.879V139Z" fill="black"/>
<path d="M220.52 194.28H238.04V201H211.88V167.4H220.52V194.28ZM268.051 201H241.411V167.4H268.051V174.12H250.051V180.6H264.211V187.32H250.051V194.28H268.051V201ZM277.88 201H268.52L281.24 167.4H290.84L303.56 201H294.2L292.04 195H280.04L277.88 201ZM282.2 188.76H289.88L286.04 177.48L282.2 188.76ZM305.958 167.4H326.118C329.478 167.4 331.91 168.168 333.414 169.704C334.95 171.208 335.718 173.64 335.718 177V181.32C335.718 183.976 335.27 186.04 334.374 187.512C333.51 188.984 332.118 189.96 330.198 190.44L336.198 201H326.838L321.318 190.92H314.598V201H305.958V167.4ZM327.078 177C327.078 175.08 326.118 174.12 324.198 174.12H314.598V184.2H324.198C326.118 184.2 327.078 183.24 327.078 181.32V177ZM369.785 201H360.665L349.145 180.84V201H340.505V167.4H349.625L361.145 187.56V167.4H369.785V201ZM415.878 200.52C408.742 201.16 402.822 201.48 398.118 201.48C394.982 201.48 392.678 200.744 391.206 199.272C389.734 197.8 388.998 195.496 388.998 192.36V177C388.998 173.64 389.75 171.208 391.254 169.704C392.79 168.168 395.238 167.4 398.598 167.4H415.878V174.12H400.518C398.598 174.12 397.638 175.08 397.638 177V192.36C397.638 193.096 397.846 193.688 398.262 194.136C398.71 194.552 399.27 194.76 399.942 194.76C400.614 194.76 401.35 194.76 402.15 194.76C402.95 194.728 403.782 194.696 404.646 194.664C405.51 194.632 406.374 194.6 407.238 194.568C408.134 194.536 409.27 194.472 410.646 194.376C412.054 194.28 413.798 194.168 415.878 194.04V200.52ZM441.324 176.52C441.324 174.6 440.364 173.64 438.444 173.64H430.284C428.364 173.64 427.404 174.6 427.404 176.52V191.88C427.404 193.8 428.364 194.76 430.284 194.76H438.444C440.364 194.76 441.324 193.8 441.324 191.88V176.52ZM449.964 191.88C449.964 195.24 449.196 197.688 447.66 199.224C446.156 200.728 443.724 201.48 440.364 201.48H428.364C425.004 201.48 422.556 200.728 421.02 199.224C419.516 197.688 418.764 195.24 418.764 191.88V176.52C418.764 173.16 419.516 170.728 421.02 169.224C422.556 167.688 425.004 166.92 428.364 166.92H440.364C443.724 166.92 446.156 167.688 447.66 169.224C449.196 170.728 449.964 173.16 449.964 176.52V191.88ZM473.506 167.4C477.122 167.4 479.858 168.344 481.714 170.232C483.602 172.088 484.546 174.824 484.546 178.44V189.96C484.546 193.576 483.602 196.328 481.714 198.216C479.858 200.072 477.122 201 473.506 201H454.786V167.4H473.506ZM475.906 178.44C475.906 175.56 474.466 174.12 471.586 174.12H463.426V194.28H471.586C474.466 194.28 475.906 192.84 475.906 189.96V178.44ZM515.973 201H489.333V167.4H515.973V174.12H497.973V180.6H512.133V187.32H497.973V194.28H515.973V201ZM542.833 201H534.193V167.4H560.833V174.12H542.833V182.04H556.993V188.76H542.833V201ZM564.193 167.4H584.353C587.713 167.4 590.145 168.168 591.649 169.704C593.185 171.208 593.953 173.64 593.953 177V181.32C593.953 183.976 593.505 186.04 592.609 187.512C591.745 188.984 590.352 189.96 588.432 190.44L594.433 201H585.073L579.553 190.92H572.833V201H564.193V167.4ZM585.312 177C585.312 175.08 584.353 174.12 582.433 174.12H572.833V184.2H582.433C584.353 184.2 585.312 183.24 585.312 181.32V177ZM620.339 176.52C620.339 174.6 619.379 173.64 617.459 173.64H609.299C607.379 173.64 606.419 174.6 606.419 176.52V191.88C606.419 193.8 607.379 194.76 609.299 194.76H617.459C619.379 194.76 620.339 193.8 620.339 191.88V176.52ZM628.979 191.88C628.979 195.24 628.211 197.688 626.675 199.224C625.171 200.728 622.739 201.48 619.379 201.48H607.379C604.019 201.48 601.571 200.728 600.035 199.224C598.531 197.688 597.779 195.24 597.779 191.88V176.52C597.779 173.16 598.531 170.728 600.035 169.224C601.571 167.688 604.019 166.92 607.379 166.92H619.379C622.739 166.92 625.171 167.688 626.675 169.224C628.211 170.728 628.979 173.16 628.979 176.52V191.88ZM662.602 182.28L655.882 194.28H649.162L642.442 182.28V201H633.802V167.4H642.922L652.522 185.16L662.122 167.4H671.242V201H662.602V182.28ZM716.851 174.12L700.051 194.28H716.851V201H689.491V194.28L706.291 174.12H689.491V167.4H716.851V174.12ZM747.348 201H720.708V167.4H747.348V174.12H729.348V180.6H743.508V187.32H729.348V194.28H747.348V201ZM751.177 167.4H771.337C774.697 167.4 777.129 168.168 778.633 169.704C780.169 171.208 780.937 173.64 780.937 177V181.32C780.937 183.976 780.489 186.04 779.593 187.512C778.729 188.984 777.337 189.96 775.417 190.44L781.417 201H772.057L766.537 190.92H759.817V201H751.177V167.4ZM772.297 177C772.297 175.08 771.337 174.12 769.417 174.12H759.817V184.2H769.417C771.337 184.2 772.297 183.24 772.297 181.32V177ZM807.324 176.52C807.324 174.6 806.364 173.64 804.444 173.64H796.284C794.364 173.64 793.404 174.6 793.404 176.52V191.88C793.404 193.8 794.364 194.76 796.284 194.76H804.444C806.364 194.76 807.324 193.8 807.324 191.88V176.52ZM815.964 191.88C815.964 195.24 815.196 197.688 813.66 199.224C812.156 200.728 809.724 201.48 806.364 201.48H794.364C791.004 201.48 788.556 200.728 787.02 199.224C785.516 197.688 784.764 195.24 784.764 191.88V176.52C784.764 173.16 785.516 170.728 787.02 169.224C788.556 167.688 791.004 166.92 794.364 166.92H806.364C809.724 166.92 812.156 167.688 813.66 169.224C815.196 170.728 815.964 173.16 815.964 176.52V191.88Z" fill="black"/>
</svg>
