<svg width="244" height="244" viewBox="0 0 244 244" fill="none" xmlns="http://www.w3.org/2000/svg">
<path fill-rule="evenodd" clip-rule="evenodd" d="M124.837 17.979C119.612 17.0911 112.489 17.0238 99.64 17.0238C77.8879 17.0238 62.4268 17.0417 50.7047 18.6106C39.2209 20.1475 32.6224 23.0305 27.8261 27.8267C23.0232 32.6296 20.1443 39.2079 18.6093 50.6258C17.0412 62.2885 17.0232 77.6624 17.0232 99.303V144.698C17.0232 166.338 17.0412 181.711 18.6093 193.374C20.1443 204.792 23.0232 211.37 27.8261 216.173C32.629 220.977 39.2073 223.855 50.6252 225.39C62.2879 226.959 77.6618 226.977 99.3018 226.977H144.697C166.337 226.977 181.711 226.959 193.374 225.39C204.791 223.855 211.37 220.977 216.173 216.173C220.976 211.37 223.855 204.792 225.389 193.374C226.957 181.711 226.976 166.338 226.976 144.698V139.736C226.976 122.305 226.853 114.042 225.003 107.815H189.483C176.627 107.815 166.12 107.815 157.826 106.699C149.156 105.534 141.64 103.011 135.639 97.0111C129.639 91.011 127.117 83.4944 125.951 74.8245C124.837 66.53 124.837 56.0241 124.837 43.1679V17.979ZM141.86 26.7775V42.5586C141.86 56.1738 141.878 65.5291 142.822 72.5561C143.735 79.3384 145.367 82.664 147.677 84.9739C149.987 87.2839 153.312 88.9162 160.095 89.828C167.122 90.7728 176.477 90.7909 190.092 90.7909H213.011C209.646 87.5275 205.336 83.6175 199.739 78.5798L154.811 38.1452C149.302 33.1876 145.203 29.5281 141.86 26.7775ZM101.294 0.000281849C117.007 -0.0039172 127.159 -0.00652731 136.502 3.57889C145.845 7.16443 153.358 13.929 164.981 24.3948C165.381 24.7562 165.788 25.1218 166.199 25.492L211.126 65.9265C211.605 66.3569 212.077 66.782 212.543 67.2018C225.977 79.2842 234.663 87.0972 239.336 97.5885C244.008 108.079 244.004 119.763 243.999 137.83C243.999 138.457 243.999 139.093 243.999 139.736V145.338C243.999 166.194 243.999 182.714 242.261 195.643C240.472 208.948 236.703 219.717 228.21 228.21C219.717 236.704 208.947 240.473 195.642 242.261C182.713 244 166.194 244 145.337 244H98.6616C77.8053 244 61.2856 244 48.3569 242.261C35.0514 240.473 24.282 236.704 15.7889 228.21C7.29591 219.717 3.52675 208.948 1.73796 195.643C-0.000336022 182.714 -0.000221832 166.194 5.14329e-06 145.338V98.6622C-0.000221832 77.8058 -0.000336022 61.2862 1.73796 48.3576C3.52675 35.052 7.29591 24.2826 15.7889 15.7895C24.2886 7.28994 35.0941 3.52487 48.4465 1.73789C61.429 0.000282245 78.0308 0.000394446 99.0013 0.000621422H99.64C100.197 0.000621422 100.749 0.000508825 101.294 0.000281849Z" fill="#E44D26"/>
<path fill-rule="evenodd" clip-rule="evenodd" d="M102.29 136.728C106.693 138.378 108.923 143.285 107.271 147.686L90.2487 193.081C88.5981 197.482 83.6919 199.712 79.2904 198.062C74.8889 196.412 72.6588 191.505 74.3093 187.104L91.3325 141.709C92.9831 137.308 97.8893 135.077 102.29 136.728ZM71.2745 138.678C74.5984 142.003 74.5984 147.392 71.2745 150.716L65.9443 156.046L71.2745 161.376C74.5984 164.7 74.5984 170.09 71.2745 173.414C67.9505 176.738 62.5612 176.738 59.2372 173.414L47.8885 162.065C44.5645 158.741 44.5645 153.351 47.8885 150.027L59.2372 138.678C62.5612 135.354 67.9505 135.354 71.2745 138.678ZM110.307 161.376C113.631 158.052 119.02 158.052 122.344 161.376L133.692 172.725C137.016 176.049 137.016 181.438 133.692 184.762L122.344 196.111C119.02 199.435 113.631 199.435 110.307 196.111C106.983 192.787 106.983 187.398 110.307 184.074L115.636 178.743L110.307 173.414C106.983 170.09 106.983 164.7 110.307 161.376Z" fill="#E44D26"/>
</svg>
