<svg width="218" height="244" viewBox="0 0 218 244" fill="none" xmlns="http://www.w3.org/2000/svg">
<path fill-rule="evenodd" clip-rule="evenodd" d="M74.1477 0C71.3383 0 68.6441 1.11773 66.6576 3.10718L3.10245 66.7594C1.11603 68.7489 0 71.4472 0 74.2609V201.565C0 219.143 14.2274 233.391 31.7776 233.391H52.9626C58.8127 233.391 63.5552 228.642 63.5552 222.783C63.5552 216.923 58.8127 212.174 52.9626 212.174H31.7776C25.9275 212.174 21.1851 207.424 21.1851 201.565V84.8696H74.1477C79.9979 84.8696 84.7402 80.1198 84.7402 74.2609V21.2174H158.888C164.738 21.2174 169.48 25.9671 169.48 31.8261V63.6522C169.48 69.5111 174.223 74.2609 180.073 74.2609C185.923 74.2609 190.665 69.5111 190.665 63.6522V31.8261C190.665 14.2491 176.439 0 158.888 0H74.1477ZM63.5552 63.6522H36.1651L63.5552 36.2203V63.6522ZM111.292 109.434C112.292 95.7 123.734 84.8696 137.703 84.8696H148.295C162.263 84.8696 173.705 95.7 174.706 109.434C187.081 103.435 202.168 107.943 209.152 120.059L214.448 129.246C221.431 141.361 217.788 156.7 206.412 164.435C217.788 172.17 221.431 187.509 214.448 199.624L209.152 208.811C202.168 220.926 187.081 225.435 174.706 219.436C173.705 233.17 162.263 244 148.295 244H137.703C123.734 244 112.292 233.17 111.292 219.436C98.9172 225.435 83.8303 220.926 76.8467 208.811L71.5504 199.624C64.5665 187.509 68.2108 172.17 79.5859 164.435C68.2108 156.7 64.5665 141.361 71.5504 129.246L76.8467 120.059C83.8303 107.943 98.9172 103.435 111.292 109.434ZM137.703 106.087C134.777 106.087 132.407 108.462 132.407 111.391V121.658C132.407 125.685 130.129 129.366 126.528 131.158C125.127 131.855 123.776 132.639 122.48 133.504C119.128 135.74 114.8 135.879 111.312 133.862L102.429 128.726C99.8949 127.261 96.6557 128.13 95.1929 130.667L89.8967 139.854C88.4349 142.392 89.3024 145.636 91.8361 147.1L100.722 152.239C104.204 154.253 106.247 158.066 105.998 162.085C105.95 162.86 105.925 163.644 105.925 164.435C105.925 165.225 105.95 166.009 105.998 166.785C106.247 170.803 104.204 174.617 100.722 176.631L91.8361 181.769C89.3024 183.233 88.4349 186.478 89.8967 189.015L95.1929 198.202C96.6557 200.74 99.8949 201.609 102.429 200.144L111.312 195.008C114.8 192.99 119.128 193.129 122.48 195.365C123.776 196.23 125.127 197.014 126.528 197.711C130.129 199.504 132.407 203.184 132.407 207.211V217.478C132.407 220.407 134.777 222.783 137.703 222.783H148.295C151.22 222.783 153.592 220.407 153.592 217.478V207.212C153.592 203.184 155.869 199.504 159.47 197.711C160.871 197.014 162.222 196.23 163.519 195.365C166.87 193.129 171.199 192.99 174.687 195.008L183.57 200.144C186.103 201.609 189.342 200.74 190.804 198.202L196.1 189.015C197.563 186.478 196.696 183.233 194.162 181.769L185.276 176.631C181.794 174.618 179.751 170.804 180 166.785C180.049 166.009 180.073 165.225 180.073 164.435C180.073 163.644 180.049 162.86 180 162.085C179.751 158.065 181.794 154.251 185.276 152.239L194.162 147.1C196.696 145.636 197.563 142.392 196.1 139.854L190.804 130.667C189.342 128.13 186.103 127.261 183.57 128.726L174.687 133.862C171.199 135.879 166.87 135.74 163.519 133.504C162.222 132.639 160.871 131.855 159.47 131.158C155.869 129.366 153.592 125.685 153.592 121.657V111.391C153.592 108.462 151.22 106.087 148.295 106.087H137.703ZM164.184 164.435C164.184 176.153 154.7 185.652 142.999 185.652C131.299 185.652 121.814 176.153 121.814 164.435C121.814 152.716 131.299 143.217 142.999 143.217C154.7 143.217 164.184 152.716 164.184 164.435Z" fill="#7A7CB1"/>
</svg>
